<svg id="Layer_1" data-name="Layer 1" xmlns="http://www.w3.org/2000/svg" viewBox="0 0 116.46 110.31"><defs><style>.cls-1{fill:#5f6368;}.cls-2{fill:#fff;}</style></defs><title>Mono</title><path class="cls-1" d="M42.39,47.19v0h0Z"/><path class="cls-1" d="M51.49,44.09a11.46,11.46,0,0,1-6.2,10.21.05.05,0,0,1,0,0,31.79,31.79,0,0,1-1.45-3c-.12-.29-.23-.57-.33-.83s-.17-.43-.25-.65c-.3-.84-.53-1.63-.8-2.53a3.48,3.48,0,0,0-1-5.83,3.5,3.5,0,0,0-1.3-.25,3.41,3.41,0,0,0-1.77.49,1.64,1.64,0,0,0-.22.14,2.08,2.08,0,0,0-.4.32,1.21,1.21,0,0,0-.19.2,1.12,1.12,0,0,0-.18.2,2.71,2.71,0,0,0-.24.35,1.74,1.74,0,0,0-.11.18,2.72,2.72,0,0,0-.11.25,1.75,1.75,0,0,0-.12.32,2,2,0,0,0-.09.33,3.36,3.36,0,0,0-.08.71,2.19,2.19,0,0,0,0,.36,1.26,1.26,0,0,0,0,.33v0a3,3,0,0,0,.09.32,1.75,1.75,0,0,0,.12.32,2.14,2.14,0,0,0,.1.22l.12.22a1.79,1.79,0,0,0,.2.28,1.71,1.71,0,0,0,.21.26,1.54,1.54,0,0,0,.26.25L33.67,55a12.09,12.09,0,0,1,4.51-22.24h0a5.35,5.35,0,0,1,.56-.07c.21,0,.41,0,.62-.05H40l.62,0,.51,0h.06l.54.07.27,0,.27,0a11.54,11.54,0,0,1,8.14,6.49A11.36,11.36,0,0,1,51.49,44.09Z"/><path class="cls-1" d="M42.39,47.19v0h0Z"/><path class="cls-2" d="M42.39,47.19v0h0Z"/><path class="cls-1" d="M35.27,84a8.77,8.77,0,0,1-.72,3.67,5.46,5.46,0,0,1-2.06,2.42,6.1,6.1,0,0,1-6.18,0,5.61,5.61,0,0,1-2.09-2.41,8.36,8.36,0,0,1-.74-3.6v-.8a8.65,8.65,0,0,1,.73-3.67,5.57,5.57,0,0,1,2.08-2.44,6.05,6.05,0,0,1,6.17,0,5.54,5.54,0,0,1,2.07,2.4,8.52,8.52,0,0,1,.74,3.65Zm-2.47-.74a6.2,6.2,0,0,0-.89-3.63,3.17,3.17,0,0,0-5,0A6.1,6.1,0,0,0,26,83.2V84a6.15,6.15,0,0,0,.91,3.62,2.92,2.92,0,0,0,2.54,1.28,2.89,2.89,0,0,0,2.52-1.25A6.28,6.28,0,0,0,32.8,84Z"/><path class="cls-1" d="M46.76,85.58a6.28,6.28,0,0,1-1.11,3.91,3.56,3.56,0,0,1-3,1.46,3.61,3.61,0,0,1-2.79-1.14v5H37.5V80.19h2.19l.1,1.08A3.46,3.46,0,0,1,42.63,80a3.59,3.59,0,0,1,3,1.44,6.47,6.47,0,0,1,1.1,4Zm-2.36-.2a4.4,4.4,0,0,0-.63-2.51A2.06,2.06,0,0,0,42,81.94a2.19,2.19,0,0,0-2.09,1.2v4.69A2.21,2.21,0,0,0,42,89.06a2.07,2.07,0,0,0,1.78-.91A4.93,4.93,0,0,0,44.4,85.38Z"/><path class="cls-1" d="M53.42,91a4.9,4.9,0,0,1-3.66-1.42,5.16,5.16,0,0,1-1.4-3.78v-.29A6.29,6.29,0,0,1,49,82.63a4.69,4.69,0,0,1,1.71-1.94A4.58,4.58,0,0,1,53.15,80a4.16,4.16,0,0,1,3.33,1.37,5.86,5.86,0,0,1,1.18,3.9v1H50.75a3.18,3.18,0,0,0,.88,2.07,2.61,2.61,0,0,0,1.93.76,3.21,3.21,0,0,0,2.65-1.32L57.49,89a4.31,4.31,0,0,1-1.69,1.47A5.3,5.3,0,0,1,53.42,91Zm-.28-9a2,2,0,0,0-1.58.68,3.59,3.59,0,0,0-.77,1.91h4.52v-.18a2.89,2.89,0,0,0-.63-1.8A2,2,0,0,0,53.14,81.9Z"/><path class="cls-1" d="M61.7,80.19l.07,1.22A3.79,3.79,0,0,1,64.84,80q3.3,0,3.36,3.78v7H65.83V83.91a2.19,2.19,0,0,0-.43-1.49A1.84,1.84,0,0,0,64,81.94a2.28,2.28,0,0,0-2.14,1.3v7.52H59.46V80.19Z"/><path class="cls-1" d="M78.28,87.1a1.72,1.72,0,0,0-.66-1.45,7.76,7.76,0,0,0-2.38-1,11.5,11.5,0,0,1-2.73-1.16,3.63,3.63,0,0,1-1.94-3.18A3.44,3.44,0,0,1,72,77.46a5.67,5.67,0,0,1,3.64-1.12,6.17,6.17,0,0,1,2.64.55,4.31,4.31,0,0,1,1.83,1.56,4,4,0,0,1,.66,2.24H78.28a2.21,2.21,0,0,0-.7-1.74,2.86,2.86,0,0,0-2-.63,3,3,0,0,0-1.88.51A1.73,1.73,0,0,0,73,80.28a1.56,1.56,0,0,0,.72,1.3,8.34,8.34,0,0,0,2.38,1,11,11,0,0,1,2.67,1.12,4.17,4.17,0,0,1,1.47,1.45,3.68,3.68,0,0,1,.47,1.91,3.37,3.37,0,0,1-1.36,2.82,5.92,5.92,0,0,1-3.7,1,7,7,0,0,1-2.83-.57,4.65,4.65,0,0,1-2-1.57,4,4,0,0,1-.72-2.35H72.6a2.3,2.3,0,0,0,.8,1.88,3.51,3.51,0,0,0,2.29.66,3,3,0,0,0,1.94-.52A1.7,1.7,0,0,0,78.28,87.1Z"/><path class="cls-1" d="M87,84.62l-1.61,1.7v4.44H82.92V76.54h2.47v6.67l1.37-1.69,4.16-5h3l-5.29,6.3,5.59,7.92H91.28Z"/><path class="cls-1" d="M59.74,19.62,41.21,25.14v5.48h.1a.85.85,0,0,1,.23,0l.48.06.43.07h.15l.09,0a13.53,13.53,0,0,1,9.55,7.61c.08.17.14.35.21.52H72.58a2.35,2.35,0,0,1,1.75,3.92s-5.14,6-6.82,6a2.82,2.82,0,0,1-1.91-.75l-2.68-2.47a1.21,1.21,0,0,0-1.52-.1l-4,2.8a2.77,2.77,0,0,1-1.62.52H52.6c-.11.28-.21.56-.33.83a13.37,13.37,0,0,1-5.79,6.22l-.16.15A31.31,31.31,0,0,0,59.74,67.74a31.51,31.51,0,0,0,18.13-24.3,48.25,48.25,0,0,0,.4-5.23V25.14Z"/><path class="cls-1" d="M42.39,47.19v0h0Z"/><path class="cls-1" d="M42.39,47.19v0h0Z"/><path class="cls-2" d="M42.39,47.19v0h0Z"/><path class="cls-1" d="M42.39,47.19v0h0Z"/><path class="cls-1" d="M42.39,47.19v0h0Z"/><path class="cls-2" d="M42.39,47.19v0h0Z"/><path class="cls-1" d="M42.39,47.19v0h0Z"/><path class="cls-1" d="M42.39,47.19v0h0Z"/><path class="cls-2" d="M42.39,47.19v0h0Z"/></svg>